<?xml version="1.0" encoding="iso-8859-1"?>
<!-- Generator: Adobe Illustrator 19.0.0, SVG Export Plug-In . SVG Version: 6.00 Build 0)  -->
<svg version="1.1" id="Capa_1" xmlns="http://www.w3.org/2000/svg" xmlns:xlink="http://www.w3.org/1999/xlink" x="0px" y="0px"
	 viewBox="0 0 512 512" style="enable-background:new 0 0 512 512;" xml:space="preserve">
<path style="fill:#FF738D;" d="M474.5,91h-30l30,75h30v-45C504.5,104.5,491,91,474.5,91z"/>
<g>
	<path style="fill:#FF91A5;" d="M444.5,91H196v75h278.5v-45C474.5,104.5,461,91,444.5,91z"/>
	<path style="fill:#FF91A5;" d="M474.5,391l-30,75h30c16.5,0,30-13.5,30-30v-15L474.5,391z"/>
</g>
<g>
	<path style="fill:#FFB3C1;" d="M474.5,436v-45l-467,30v15c0,16.5,13.5,30,30,30h407C461,466,474.5,452.5,474.5,436z"/>
	<path style="fill:#FFB3C1;" d="M474.5,136h-30l30,285h30V166C504.5,149.5,491,136,474.5,136z"/>
</g>
<path style="fill:#FDDBDF;" d="M474.5,166c0-16.5-13.5-30-30-30H286l-43.359-65.039C233.489,57.233,212.5,46,196,46H37.5
	c-16.5,0-30,13.5-30,30v345h467V166z"/>
<path d="M474.5,83.5H260.014l-11.133-16.699C238.301,50.931,215.073,38.5,196,38.5H37.5C16.822,38.5,0,55.322,0,76v360
	c0,20.678,16.822,37.5,37.5,37.5h437c20.678,0,37.5-16.822,37.5-37.5V121C512,100.322,495.178,83.5,474.5,83.5z M497,436
	c0,12.406-10.093,22.5-22.5,22.5h-437C25.093,458.5,15,448.406,15,436V76c0-12.406,10.093-22.5,22.5-22.5H196
	c14.086,0,32.587,9.901,40.401,21.621l13.299,19.95c0.037,0.056,0.074,0.112,0.112,0.167l29.948,44.922
	c1.391,2.087,3.732,3.34,6.24,3.34h188.5c12.407,0,22.5,10.094,22.5,22.5V436z M497,136.018c-6.271-4.718-14.065-7.518-22.5-7.518
	H290.014l-20-30H474.5c12.407,0,22.5,10.094,22.5,22.5V136.018z"/>
<path d="M474.5,413.5h-437c-4.142,0-7.5,3.357-7.5,7.5s3.358,7.5,7.5,7.5h437c4.142,0,7.5-3.357,7.5-7.5S478.642,413.5,474.5,413.5z
	"/>
<g>
</g>
<g>
</g>
<g>
</g>
<g>
</g>
<g>
</g>
<g>
</g>
<g>
</g>
<g>
</g>
<g>
</g>
<g>
</g>
<g>
</g>
<g>
</g>
<g>
</g>
<g>
</g>
<g>
</g>
</svg>
